<?xml version="1.0" encoding="UTF-8" standalone="no"?>
<!DOCTYPE svg PUBLIC "-//W3C//DTD SVG 1.1//EN" "http://www.w3.org/Graphics/SVG/1.1/DTD/svg11.dtd">
<svg xmlns:dc="http://purl.org/dc/elements/1.1/" xmlns:xl="http://www.w3.org/1999/xlink" version="1.1" xmlns="http://www.w3.org/2000/svg" viewBox="218.44859 850.3937 90.13433 86.45669" width="90.13433" height="86.45669">
  <defs/>
  <metadata> Produced by OmniGraffle 7.7.1 
    <dc:date>2018-06-27 13:37:55 +0000</dc:date>
  </metadata>
  <g id="Canvas_1" fill-opacity="1" stroke-dasharray="none" stroke="none" stroke-opacity="1" fill="none">
    <title>Canvas 2</title>
    <g id="Canvas_1: Layer 1">
      <title>Layer 1</title>
      <g id="Graphic_453">
        <path d="M 286.09848 878.2478 L 297.5756 867.1882 L 297.58245 928.7568 L 286.24385 928.7568 Z" fill="black"/>
      </g>
      <g id="Graphic_452">
        <path d="M 286.09848 878.2478 L 297.5756 867.1882 L 297.58245 928.7568 L 286.24385 928.7568 Z" stroke="black" stroke-linecap="round" stroke-linejoin="round" stroke-width=".5"/>
      </g>
      <g id="Graphic_451">
        <path d="M 243.8642 928.7658 L 231.53892 928.7478 L 264.33225 897.0973 L 270.50795 903.0564 Z" fill="black"/>
      </g>
      <g id="Graphic_450">
        <path d="M 243.8642 928.7658 L 231.53892 928.7478 L 264.33225 897.0973 L 270.50795 903.0564 Z" stroke="black" stroke-linecap="round" stroke-linejoin="round" stroke-width=".5"/>
      </g>
      <g id="Graphic_449">
        <path d="M 284.8246 928.7658 L 297.14988 928.7478 L 264.35655 897.0973 L 258.18085 903.0564 Z" fill="black"/>
      </g>
      <g id="Graphic_448">
        <path d="M 284.8246 928.7658 L 297.14988 928.7478 L 264.35655 897.0973 L 258.18085 903.0564 Z" stroke="black" stroke-linecap="round" stroke-linejoin="round" stroke-width=".5"/>
      </g>
      <g id="Graphic_447">
        <path d="M 241.74877 910.4421 L 230.27163 921.5017 L 230.2648 859.9331 L 241.60337 859.9331 Z" fill="black"/>
      </g>
      <g id="Graphic_446">
        <path d="M 241.74877 910.4421 L 230.27163 921.5017 L 230.2648 859.9331 L 241.60337 859.9331 Z" stroke="black" stroke-linecap="round" stroke-linejoin="round" stroke-width=".5"/>
      </g>
      <g id="Graphic_445">
        <path d="M 283.98307 859.9241 L 296.30832 859.9421 L 263.51497 891.5926 L 257.3393 885.6335 Z" fill="black"/>
      </g>
      <g id="Graphic_444">
        <path d="M 283.98307 859.9241 L 296.30832 859.9421 L 263.51497 891.5926 L 257.3393 885.6335 Z" stroke="black" stroke-linecap="round" stroke-linejoin="round" stroke-width=".5"/>
      </g>
      <g id="Graphic_443">
        <path d="M 243.02263 859.9241 L 230.69737 859.9421 L 263.49067 891.5926 L 269.66637 885.6335 Z" fill="black"/>
      </g>
      <g id="Graphic_442">
        <path d="M 243.02263 859.9241 L 230.69737 859.9421 L 263.49067 891.5926 L 269.66637 885.6335 Z" stroke="black" stroke-linecap="round" stroke-linejoin="round" stroke-width=".5"/>
      </g>
      <g id="Graphic_428"/>
    </g>
  </g>
</svg>
