<?xml version="1.0" standalone="no"?>
<!DOCTYPE svg PUBLIC "-//W3C//DTD SVG 20010904//EN"
 "http://www.w3.org/TR/2001/REC-SVG-20010904/DTD/svg10.dtd">
<svg version="1.0" xmlns="http://www.w3.org/2000/svg"
 width="720.000000pt" height="720.000000pt" viewBox="0 0 720.000000 720.000000"
 preserveAspectRatio="xMidYMid meet">
<metadata>
Created by potrace 1.11, written by Peter Selinger 2001-2013
</metadata>
<g transform="translate(0.000000,720.000000) scale(0.100000,-0.100000)"
fill="#000000" stroke="none">
<path d="M933 6298 c-14 -19 -11 -4924 3 -4938 11 -11 5 -16 353 319 118 113
257 248 310 298 53 51 138 133 189 182 l93 90 0 205 c0 113 -2 209 -4 214 -3
4 -2 14 3 22 4 7 4 24 0 36 -6 14 -5 26 0 29 5 3 5 18 0 34 -4 16 -7 31 -5 33
5 4 6 78 3 135 -1 24 1 45 4 48 3 3 2 22 -3 42 -4 21 -4 44 1 54 5 9 7 19 3
22 -7 7 -12 2267 -5 2267 2 0 38 -33 79 -72 41 -40 114 -111 163 -158 48 -47
176 -170 285 -275 108 -104 232 -224 274 -265 43 -41 143 -138 222 -214 79
-76 245 -237 369 -357 252 -244 322 -309 331 -309 3 0 48 41 100 91 52 50 190
184 308 297 268 258 307 296 473 457 171 165 576 556 638 615 43 41 429 413
555 535 29 28 150 145 270 260 119 116 235 227 256 248 70 68 86 66 -469 66
-274 1 -503 -3 -509 -7 -11 -7 -120 -112 -493 -472 -37 -36 -154 -148 -260
-250 -105 -102 -236 -228 -290 -280 -54 -52 -176 -169 -270 -260 -94 -91 -203
-196 -242 -233 l-70 -68 -91 90 c-51 49 -126 122 -167 161 -73 70 -413 398
-570 550 -43 41 -160 154 -260 250 -236 227 -294 283 -428 413 l-111 107 -514
0 c-400 0 -517 -3 -524 -12z"/>
<path d="M6239 5659 c-41 -39 -168 -162 -283 -273 -115 -110 -239 -229 -275
-264 -36 -35 -118 -114 -181 -175 l-116 -112 3 -1250 c2 -688 5 -1393 6 -1568
1 -180 -2 -317 -7 -317 -5 0 -54 44 -109 97 -111 109 -136 133 -433 419 -115
111 -238 230 -274 264 -78 74 -475 457 -823 794 -37 36 -73 66 -81 66 -7 0
-53 -39 -103 -87 -122 -119 -484 -467 -656 -633 -77 -74 -192 -186 -255 -248
-64 -61 -116 -112 -117 -112 -1 0 -40 -37 -87 -82 -230 -223 -403 -391 -593
-573 -114 -110 -243 -234 -285 -275 -43 -41 -169 -163 -280 -270 -112 -107
-216 -208 -231 -223 -30 -30 -38 -56 -16 -58 6 -1 233 -2 504 -3 l492 -1 114
110 c62 60 207 200 321 310 114 110 249 241 300 290 52 50 183 176 291 280
109 105 238 228 286 275 48 47 129 126 180 175 51 50 104 98 117 109 23 18 24
18 41 0 17 -18 360 -349 506 -489 39 -37 162 -156 274 -264 213 -205 230 -222
567 -548 215 -207 253 -242 263 -244 23 -5 1025 -3 1033 2 11 7 14 490 3 508
-3 6 -3 11 2 11 6 0 8 3109 2 3130 -1 3 -1 9 0 14 1 5 2 74 1 153 -1 79 -1
150 -1 158 0 8 0 62 0 120 0 58 0 112 0 120 0 8 0 62 0 120 0 58 0 112 0 120
0 8 0 62 0 120 0 58 0 113 0 123 2 122 -1 237 -5 244 -10 15 -20 8 -95 -63z"/>
</g>
</svg>
